<?xml version="1.0" standalone="no"?>
<!DOCTYPE svg PUBLIC "-//W3C//DTD SVG 20010904//EN"
 "http://www.w3.org/TR/2001/REC-SVG-20010904/DTD/svg10.dtd">
<svg version="1.0" xmlns="http://www.w3.org/2000/svg"
 width="357.000000pt" height="351.000000pt" viewBox="0 0 357.000000 351.000000"
 preserveAspectRatio="xMidYMid meet">

<g transform="translate(0.000000,351.000000) scale(0.100000,-0.100000)"
fill="#000000" stroke="none">
<path d="M2241 3045 c9 -11 22 -36 29 -55 7 -19 17 -40 22 -46 4 -6 11 -33 15
-59 6 -47 6 -48 -18 -41 -98 28 -298 70 -364 76 -90 8 -230 3 -260 -10 -11 -5
-51 -16 -88 -24 -37 -9 -91 -26 -120 -37 -148 -59 -149 -59 -264 -59 -69 0
-113 4 -113 10 0 6 -36 10 -88 10 -82 0 -90 -2 -100 -22 -8 -15 -13 -111 -14
-283 l-3 -261 -43 -71 c-71 -117 -117 -287 -129 -475 -11 -184 46 -445 126
-573 21 -33 48 -80 61 -104 20 -39 20 -45 6 -53 -9 -5 -16 -17 -16 -28 0 -10
-12 -28 -28 -40 -82 -64 -108 -98 -121 -157 -7 -32 -21 -76 -31 -98 -36 -81
-40 -95 -28 -95 6 0 52 19 101 41 62 29 115 45 170 53 67 10 82 15 90 34 11
25 39 29 57 7 6 -7 36 -28 66 -45 30 -16 54 -34 54 -39 0 -8 30 -22 175 -78
185 -72 211 -77 425 -77 157 -1 211 3 278 18 45 10 82 22 82 26 0 4 18 13 40
20 22 7 38 15 36 17 -4 4 -121 -25 -151 -38 -38 -17 -151 -29 -267 -29 -121 0
-268 17 -268 30 0 4 -17 11 -37 15 -64 12 -222 67 -240 85 -10 9 -27 19 -38
24 -31 11 -145 89 -145 98 0 4 23 8 50 8 28 0 50 -4 50 -10 0 -20 231 -112
246 -98 2 3 -37 24 -88 46 -51 23 -94 46 -96 51 -6 17 97 14 114 -3 16 -17
104 -51 184 -72 200 -52 460 -33 660 49 30 12 57 25 58 30 2 4 30 7 63 7 102
0 72 -29 -86 -81 -55 -19 -102 -37 -105 -41 -3 -4 -24 -10 -48 -14 -23 -3 -50
-13 -59 -20 -17 -12 -17 -13 4 -14 38 0 146 31 228 66 75 32 109 49 180 87 17
9 42 19 56 21 40 8 69 40 76 83 3 21 16 52 28 68 35 47 46 73 35 80 -5 3 -19
-14 -31 -37 -12 -24 -24 -38 -26 -31 -2 7 0 21 6 32 6 11 11 31 11 44 0 13 9
32 20 42 11 10 20 23 20 30 0 6 8 20 19 31 25 27 37 51 88 174 69 167 77 208
79 430 2 192 2 196 29 243 15 26 31 47 35 47 12 0 49 125 55 186 l5 49 -15
-59 c-8 -32 -29 -86 -47 -120 -17 -34 -37 -73 -45 -88 -8 -15 -35 -44 -61 -65
-26 -20 -53 -44 -59 -52 -7 -8 -13 -11 -13 -5 0 5 20 31 44 58 45 49 124 191
113 202 -3 3 -12 -7 -20 -23 -8 -15 -25 -37 -37 -48 -18 -16 -13 -3 19 58 22
43 41 85 41 92 0 8 6 20 13 27 24 24 28 53 28 190 -1 113 2 148 18 193 21 60
8 74 -18 19 -8 -16 -17 -31 -21 -34 -4 -3 -17 -52 -28 -109 -20 -96 -63 -211
-80 -211 -4 0 -30 -22 -57 -50 -55 -55 -84 -69 -35 -17 16 17 40 52 52 77 12
25 30 57 41 71 10 14 34 88 54 164 33 128 40 144 85 202 35 44 66 71 101 89
l52 25 -75 -6 c-41 -3 -90 -8 -108 -12 -32 -5 -32 -5 -21 21 7 14 16 26 21 26
8 0 38 60 38 76 0 3 -8 -3 -17 -15 -10 -12 -28 -23 -41 -24 -14 -1 -31 -14
-42 -32 -11 -16 -43 -50 -72 -75 -48 -41 -51 -42 -30 -13 13 18 32 39 43 47
11 7 34 32 51 55 16 23 34 39 39 36 5 -4 6 2 2 11 -3 10 -2 15 3 12 15 -10 14
79 -1 117 -8 19 -25 40 -37 46 -23 12 -23 12 -4 -10 12 -13 21 -41 24 -74 4
-46 1 -57 -23 -85 -15 -18 -39 -39 -54 -46 -14 -8 -36 -23 -49 -34 -28 -24
-189 -85 -203 -76 -5 3 -19 24 -30 46 -11 22 -41 61 -65 87 -24 25 -44 49 -44
53 0 4 -25 23 -55 43 -31 19 -59 45 -64 58 -5 13 -17 29 -27 37 -18 14 -18 14
-3 -5z m-244 -165 c43 -6 126 -23 186 -37 87 -22 107 -30 107 -45 0 -30 -29
-33 -119 -10 -171 43 -395 52 -548 23 -26 -5 -79 -12 -116 -15 -93 -7 -85 11
20 46 127 43 316 58 470 38z m-977 -1553 c23 -3 47 -11 55 -17 18 -15 20 -41
3 -37 -10 1 -15 -26 -19 -98 l-5 -100 -2 106 -2 106 -31 -5 c-25 -4 -30 -2
-24 9 6 11 5 11 -4 3 -9 -8 -11 -51 -9 -148 2 -88 -1 -136 -7 -136 -7 0 -9 47
-7 135 3 107 1 135 -10 135 -10 0 -10 2 1 9 8 5 -4 7 -33 4 -51 -6 -66 12 -18
23 15 3 34 8 42 10 13 3 15 92 14 726 -1 398 1 728 5 733 3 6 7 -319 9 -721
l2 -731 40 -6z m-90 728 c0 -466 -3 -725 -10 -725 -6 0 -11 234 -12 648 -3
696 -1 802 13 802 5 0 9 -290 9 -725z m127 -357 c-1 -200 -2 -39 -2 357 0 396
1 559 2 363 2 -196 2 -520 0 -720z m1569 1005 c-8 -16 -31 -45 -50 -66 -20
-21 -36 -46 -36 -55 0 -12 -3 -13 -8 -5 -5 9 -12 1 -21 -23 -7 -19 -15 -34
-17 -31 -2 2 2 23 10 45 20 55 13 53 -15 -3 -12 -25 -26 -45 -30 -45 -4 0 -14
-18 -23 -40 -18 -46 -25 -51 -18 -14 3 17 1 25 -5 21 -6 -4 -13 -21 -17 -38
-3 -18 -9 -30 -12 -27 -9 9 16 90 37 120 l20 27 -53 -2 c-50 -2 -54 -4 -75
-42 -20 -37 -53 -170 -53 -214 0 -14 -5 -19 -15 -15 -17 7 -22 104 -6 104 5 0
12 17 16 37 4 20 18 60 31 87 l25 51 -31 -35 c-17 -19 -37 -42 -44 -50 -14
-17 -48 -102 -66 -169 -18 -65 -31 -36 -15 34 12 53 12 58 -1 41 -7 -11 -14
-28 -14 -37 0 -10 -4 -19 -8 -21 -4 -1 -18 -28 -29 -58 l-22 -55 0 40 c0 40
10 103 24 140 6 17 3 16 -13 -4 -11 -13 -25 -49 -33 -78 -17 -75 -33 -45 -20
38 10 61 13 65 93 145 99 98 116 117 145 163 13 20 23 32 23 27 0 -15 -50 -96
-59 -96 -5 0 -19 -17 -31 -37 -20 -34 -20 -36 -3 -20 11 9 25 17 31 17 6 0 15
7 20 15 4 9 43 25 86 35 75 19 175 62 186 81 6 9 76 37 98 38 10 1 9 -5 -2
-26z m27 -8 c-3 -9 -8 -14 -10 -11 -3 3 -2 9 2 15 9 16 15 13 8 -4z m191 1
c-3 -8 -20 -20 -37 -27 -47 -19 -172 -149 -203 -211 -15 -29 -29 -55 -33 -58
-3 -3 -26 -45 -50 -93 -25 -49 -50 -91 -58 -94 -7 -3 -29 -27 -49 -54 -20 -27
-56 -63 -80 -80 -24 -17 -52 -38 -62 -48 -20 -21 -103 -56 -152 -65 -33 -7
-32 -5 15 19 28 15 58 35 68 46 10 10 24 19 32 19 15 0 154 134 218 210 37 45
107 178 107 205 0 7 4 15 8 17 5 2 25 27 44 56 25 38 56 66 100 93 34 21 68
39 74 39 6 0 21 9 34 20 27 24 31 25 24 6z m-659 -110 c-9 -13 -38 -42 -65
-65 -28 -23 -50 -47 -50 -52 0 -10 -34 -62 -56 -86 -14 -15 -42 -127 -53 -213
-8 -61 -9 -62 -11 -20 l-2 45 -13 -45 c-11 -40 -13 -41 -14 -15 0 17 4 50 9
75 6 25 12 56 15 70 l5 25 -15 -25 c-8 -14 -14 -32 -15 -42 0 -9 -4 -18 -9
-20 -5 -1 -16 -32 -24 -68 l-16 -65 4 58 c3 31 3 57 1 57 -3 0 -10 -25 -16
-55 -6 -30 -16 -55 -21 -55 -5 0 -9 -7 -9 -17 0 -9 -3 -14 -6 -11 -5 6 4 65
21 143 5 23 4 26 -4 15 -6 -8 -16 -40 -22 -70 -6 -30 -15 -57 -20 -60 -4 -3
-14 -39 -22 -80 -13 -66 -15 -70 -16 -32 -1 45 27 184 39 192 3 3 17 30 30 61
12 31 38 73 56 93 19 21 34 39 34 42 0 15 101 125 149 161 31 23 61 46 66 51
16 13 49 31 58 32 4 0 0 -11 -8 -24z m189 -41 c3 -8 2 -14 -2 -14 -21 3 -30
-4 -36 -27 -4 -15 -9 -24 -12 -22 -7 8 15 61 29 70 15 10 14 10 21 -7z m382
-44 c-9 -16 -16 -38 -17 -48 0 -12 -2 -13 -6 -5 -5 14 27 96 34 88 3 -2 -3
-18 -11 -35z m-275 -22 c-5 -13 -10 -19 -10 -12 -1 15 10 45 15 40 3 -2 0 -15
-5 -28z m-598 -71 c-11 -13 -30 -41 -43 -63 -13 -22 -31 -47 -40 -57 -26 -24
-80 -201 -93 -300 -12 -96 -26 -116 -28 -40 -1 47 -1 47 -15 -22 -20 -104 -24
-101 -20 14 l4 105 -14 -80 c-14 -77 -14 -197 1 -240 5 -14 4 -16 -3 -6 -16
22 -23 -2 -24 -84 -1 -42 -5 -70 -10 -63 -4 7 -8 23 -8 36 0 12 -4 22 -8 22
-16 0 -36 97 -36 170 1 88 20 188 40 208 8 7 14 20 14 28 0 24 69 155 95 182
14 14 25 29 25 35 0 11 166 177 177 177 3 0 -3 -10 -14 -22z m866 -84 c-8 -26
-20 -49 -26 -51 -7 -3 -13 -11 -13 -18 0 -8 -15 -23 -32 -35 l-33 -22 28 24
c15 13 27 29 27 36 0 7 6 15 13 18 8 3 14 10 15 17 2 20 26 86 30 82 3 -2 -2
-25 -9 -51z m-159 -73 c0 -5 -6 -16 -13 -23 -7 -7 -26 -31 -42 -53 -41 -55
-54 -67 -84 -82 l-26 -13 26 23 c15 12 28 27 30 33 4 11 101 124 107 124 1 0
2 -4 2 -9z m-353 -58 c-9 -2 -15 -9 -12 -14 3 -5 -2 -6 -11 -2 -12 4 -15 3
-10 -5 5 -8 1 -10 -10 -5 -12 4 -15 3 -10 -5 5 -8 2 -10 -9 -6 -11 5 -14 2 -9
-12 4 -15 4 -16 -4 -5 -8 11 -13 11 -23 2 -8 -6 -23 -18 -34 -26 l-20 -15 20
7 c21 7 21 5 -9 -17 -13 -10 -17 -10 -12 -2 10 17 -4 15 -26 -5 -10 -9 -28
-21 -41 -27 -12 -7 -22 -19 -22 -28 0 -10 -17 -35 -38 -56 -20 -21 -37 -42
-37 -46 0 -10 -51 -51 -64 -51 -5 0 -11 -6 -14 -14 -3 -9 0 -11 9 -6 8 5 11 4
6 -1 -5 -5 -13 -9 -19 -9 -6 0 -16 -9 -22 -20 -6 -10 -17 -26 -25 -34 -12 -13
-13 -12 -6 9 4 14 11 27 15 30 4 3 20 28 34 57 30 57 155 191 198 213 15 7 37
22 48 32 20 19 134 66 160 66 10 0 9 -2 -3 -5z m-1367 -81 c0 -21 -14 -83 -31
-138 -46 -145 -62 -290 -49 -443 6 -68 14 -129 19 -135 5 -6 13 -33 19 -61 6
-27 20 -79 31 -114 22 -67 27 -116 12 -106 -20 12 -90 174 -111 255 -40 159
-38 407 5 576 16 61 84 204 97 204 5 0 8 -17 8 -38z m1675 -42 c-27 -10 -57
-18 -65 -18 -8 0 8 8 35 18 28 10 57 18 65 18 8 0 -7 -8 -35 -18z m-497 -19
c-26 -33 -38 -38 -38 -16 0 8 6 15 14 15 7 0 19 7 26 15 23 28 22 15 -2 -14z
m-1177 -391 l-6 -325 -20 60 c-17 51 -20 87 -20 245 0 119 5 205 13 240 14 56
33 113 37 108 1 -2 -1 -149 -4 -328z m648 64 c14 -72 13 -84 0 -60 -31 53 -48
202 -32 277 6 27 9 13 15 -63 4 -54 12 -123 17 -154z m158 144 c-3 -8 -6 -5
-6 6 -1 11 2 17 5 13 3 -3 4 -12 1 -19z m508 2 c-22 -10 -61 -26 -87 -35 -27
-10 -48 -22 -48 -26 0 -5 -8 -9 -17 -9 -10 0 -38 -12 -63 -26 -34 -20 -40 -21
-27 -6 9 10 14 22 10 26 -4 4 0 4 10 0 13 -4 16 -2 11 9 -4 11 9 19 53 33 201
60 224 65 158 34z m35 -20 l-35 -20 30 6 c17 4 38 11 48 16 10 5 21 8 23 5 3
-2 -13 -12 -35 -21 -23 -8 -50 -25 -61 -36 -11 -11 -29 -20 -40 -20 -12 0 -35
-7 -51 -16 -17 -8 -33 -13 -36 -10 -4 3 16 15 43 27 48 22 85 49 65 49 -5 0
-16 -6 -23 -13 -12 -12 -178 -79 -178 -72 0 2 24 16 52 30 29 15 55 31 59 36
7 12 128 57 154 58 15 0 11 -5 -15 -19z m-782 -33 c2 -10 -3 -17 -11 -17 -16
0 -30 24 -19 34 10 10 27 1 30 -17z m960 0 c-33 -32 -254 -103 -294 -95 -19 4
52 28 189 63 37 10 67 21 67 26 0 7 18 14 43 18 5 0 2 -5 -5 -12z m419 -202
c-3 -85 -10 -139 -25 -185 -11 -36 -29 -92 -38 -125 -17 -59 -62 -165 -74
-175 -4 -3 -24 -33 -45 -68 -21 -34 -40 -61 -42 -59 -2 2 -4 35 -4 73 0 64 4
77 51 169 67 130 89 211 97 363 6 122 3 136 -27 110 -8 -7 3 7 24 32 65 76 70
78 79 28 5 -24 6 -97 4 -163z m-314 145 c-18 -11 -44 -22 -57 -26 -13 -3 -33
-14 -44 -24 -11 -11 -50 -27 -85 -36 -36 -10 -64 -21 -61 -25 6 -10 -26 -16
-181 -34 -71 -9 -131 -20 -133 -26 -2 -5 -12 -9 -22 -9 -56 0 -252 -81 -294
-122 -17 -17 -25 -27 -18 -24 6 4 12 5 12 2 0 -3 -22 -17 -50 -31 -27 -14 -50
-29 -50 -33 0 -4 -27 -27 -61 -52 -62 -45 -85 -73 -74 -90 3 -6 -1 -7 -10 -4
-18 7 -85 -51 -85 -72 0 -7 -8 -17 -17 -23 -10 -5 -15 -12 -12 -16 4 -3 24 16
45 44 22 28 44 50 50 51 15 0 -205 -225 -227 -232 -17 -6 -79 19 -79 32 0 12
73 80 86 80 7 0 25 15 41 33 16 17 51 50 78 72 97 76 169 158 188 212 9 28 17
58 17 67 0 9 5 16 10 16 6 0 10 7 10 15 0 8 -4 15 -10 15 -5 0 -10 6 -10 13 0
21 -27 72 -49 91 -11 10 -39 24 -63 31 l-43 14 40 0 c52 1 86 -17 105 -54 8
-17 18 -32 21 -35 3 -3 9 -12 12 -20 4 -8 4 3 0 25 -3 22 -9 42 -13 45 -3 3
-12 21 -20 40 -7 19 -27 51 -44 70 l-31 34 34 -25 c19 -14 40 -34 45 -44 6
-11 17 -25 23 -33 13 -13 27 -59 38 -124 8 -41 -17 -142 -38 -155 -17 -10 -29
-43 -17 -43 6 0 30 19 53 43 81 79 122 109 207 150 47 23 87 45 90 48 13 16
151 51 315 80 66 12 122 25 125 29 3 4 30 13 60 20 30 7 84 23 120 36 84 30
118 32 73 4z m206 -199 c-5 -58 -16 -118 -23 -135 -8 -17 -20 -49 -27 -71 -6
-21 -23 -64 -38 -95 -25 -54 -25 -54 -29 -24 -2 18 4 49 13 70 31 73 54 164
81 319 9 48 14 59 24 49 5 -5 5 -50 -1 -113z m-69 -40 c-49 -228 -53 -232 -50
-51 1 70 6 100 17 112 9 10 20 15 24 12 5 -3 10 1 10 8 1 7 4 4 6 -6 3 -11 0
-45 -7 -75z m-210 69 c0 -5 -17 -12 -37 -15 -21 -4 -51 -11 -68 -15 -59 -17
-171 -27 -247 -22 -91 5 -105 22 -19 22 101 0 316 20 319 30 5 13 52 13 52 0z
m-141 -76 c8 -7 -164 -3 -204 5 -24 5 8 6 80 3 66 -3 122 -6 124 -8z m-431
-76 c-6 -18 -28 -21 -28 -4 0 9 7 16 16 16 9 0 14 -5 12 -12z m210 -45 c45 -9
82 -21 82 -25 0 -4 18 -11 40 -14 23 -4 39 -9 36 -11 -8 -8 -186 19 -186 28 0
15 -267 11 -273 -3 -4 -10 -8 -9 -16 2 -7 10 -11 11 -11 3 0 -7 -7 -13 -15
-13 -29 0 -14 19 23 29 94 25 213 26 320 4z m-183 -97 c45 -27 65 -70 65 -140
0 -83 -80 -158 -163 -155 -27 2 -28 2 -7 6 62 10 88 25 106 58 10 19 22 35 26
35 5 0 8 25 8 55 0 30 -4 55 -9 55 -5 0 -14 14 -21 31 -7 17 -29 41 -49 55
-49 33 -13 33 44 0z m-45 -26 c8 -5 11 -12 8 -16 -4 -3 -1 -19 7 -35 40 -76
-13 -181 -77 -156 -7 3 -3 6 9 6 37 2 63 39 63 91 0 52 -16 74 -62 85 -28 7
-34 16 -21 28 9 10 56 8 73 -3z m38 -56 c-4 -3 -12 5 -18 18 -12 22 -12 22 6
6 10 -10 15 -20 12 -24z m-948 -79 c0 -63 -4 -105 -10 -105 -6 0 -10 42 -10
105 0 63 4 105 10 105 6 0 10 -42 10 -105z m780 -105 l25 -22 -25 12 c-26 14
-59 49 -60 64 0 4 8 -1 18 -12 9 -10 28 -29 42 -42z m-650 -46 c11 -12 11 -18
-2 -30 -13 -13 -17 -13 -38 4 -13 11 -20 24 -16 30 10 17 41 15 56 -4z m-50
-39 c7 -8 10 -22 6 -30 -3 -10 1 -15 13 -15 10 0 23 -11 29 -25 14 -31 15 -47
2 -23 -6 9 -30 29 -55 45 -25 16 -45 36 -45 46 0 21 33 23 50 2z m164 -10 c-9
-14 -18 -25 -21 -25 -5 0 5 18 20 38 17 22 18 13 1 -13z m-84 -6 c0 -11 -4
-17 -10 -14 -5 3 -10 13 -10 21 0 8 5 14 10 14 6 0 10 -9 10 -21z m-126 -25
c9 -8 16 -17 16 -19 0 -15 -62 -86 -153 -175 -59 -58 -107 -112 -108 -120 0
-11 -2 -11 -6 -2 -3 7 2 34 11 60 9 26 21 66 26 90 6 23 20 48 30 55 11 6 20
17 20 24 0 7 6 13 13 13 7 0 33 20 57 45 47 48 69 55 94 29z m166 2 c0 -2 -8
-10 -17 -17 -16 -13 -17 -12 -4 4 13 16 21 21 21 13z m-124 -63 c7 -10 14 -22
14 -27 0 -6 -6 -1 -14 10 -13 18 -15 18 -21 2 -4 -10 -29 -34 -56 -53 -45 -32
-48 -33 -33 -10 9 14 23 25 30 25 8 0 18 8 21 17 6 16 34 50 42 52 2 1 10 -7
17 -16z m1414 -23 c0 -5 9 -10 19 -10 30 0 51 -11 51 -26 0 -17 -1 -17 -36 -4
-19 8 -30 7 -42 -2 -23 -19 -1306 -25 -1300 -6 3 7 17 19 31 26 15 7 27 17 27
23 0 5 239 9 625 9 410 0 625 -3 625 -10z m-938 -108 c5 -14 178 -44 283 -49
69 -3 132 0 205 12 58 10 122 20 143 22 20 3 37 9 37 14 0 5 5 9 10 9 23 0 8
-30 -17 -36 -16 -3 -50 -12 -78 -20 -89 -24 -243 -35 -341 -25 -126 13 -274
51 -267 68 6 15 20 17 25 5z m228 -2 c0 -6 37 -10 90 -10 53 0 90 4 90 10 0
15 47 12 53 -4 7 -19 -107 -30 -213 -20 -64 5 -76 9 -67 20 14 16 47 18 47 4z"/>
<path d="M2425 2519 c-4 -6 -5 -12 -2 -15 2 -3 7 2 10 11 7 17 1 20 -8 4z"/>
<path d="M1851 2254 c0 -11 3 -14 6 -6 3 7 2 16 -1 19 -3 4 -6 -2 -5 -13z"/>
<path d="M1711 2144 c0 -11 3 -14 6 -6 3 7 2 16 -1 19 -3 4 -6 -2 -5 -13z"/>
<path d="M1651 2064 c0 -11 3 -14 6 -6 3 7 2 16 -1 19 -3 4 -6 -2 -5 -13z"/>
<path d="M1611 1754 c0 -11 3 -14 6 -6 3 7 2 16 -1 19 -3 4 -6 -2 -5 -13z"/>
<path d="M1593 1680 c0 -30 2 -43 4 -27 2 15 2 39 0 55 -2 15 -4 2 -4 -28z"/>
<path d="M1934 1972 c-28 -26 -57 -58 -64 -72 l-13 -25 22 19 c11 11 21 23 21
27 0 4 21 28 48 53 62 60 51 58 -14 -2z"/>
<path d="M2208 1643 c7 -3 16 -2 19 1 4 3 -2 6 -13 5 -11 0 -14 -3 -6 -6z"/>
<path d="M1493 1505 c0 -22 2 -30 4 -17 2 12 2 30 0 40 -3 9 -5 -1 -4 -23z"/>
<path d="M1129 999 l-24 -20 28 17 c15 9 27 18 27 20 0 8 -8 4 -31 -17z"/>
<path d="M2631 1554 c0 -11 3 -14 6 -6 3 7 2 16 -1 19 -3 4 -6 -2 -5 -13z"/>
<path d="M965 2950 c-21 -41 -20 -45 25 -47 22 0 40 1 40 4 0 8 -41 73 -46 73
-2 0 -10 -13 -19 -30z"/>
</g>
</svg>
